<?xml version="1.0" encoding="iso-8859-1"?>
<!-- Generator: Adobe Illustrator 19.0.0, SVG Export Plug-In . SVG Version: 6.00 Build 0)  -->
<svg version="1.1" id="Capa_1" xmlns="http://www.w3.org/2000/svg" xmlns:xlink="http://www.w3.org/1999/xlink" x="0px" y="0px"
	 viewBox="0 0 378.061 378.061" style="enable-background:new 0 0 378.061 378.061;" xml:space="preserve">
<g>
	<g>
		<path d="M312.397,57.667C281.769,21.098,236.511-0.02,188.81,0C99.782,0.249,27.812,72.622,28.061,161.65
			s72.622,160.997,161.65,160.749c9.138-0.026,18.257-0.828,27.258-2.399l62,56c3.28,2.96,8.339,2.701,11.299-0.579
			c1.322-1.465,2.056-3.367,2.061-5.341v-85.44C360.548,227.505,369.532,125.886,312.397,57.667z M279.37,274.56
			c-1.91,1.509-3.029,3.806-3.04,6.24V352l-51.52-46.64c-1.467-1.334-3.377-2.075-5.36-2.08h-1.6
			c-78.572,16.038-155.268-34.655-171.306-113.227S81.198,34.786,159.77,18.747c78.572-16.038,155.268,34.655,171.306,113.227
			c1.963,9.618,2.946,19.41,2.933,29.226C334.061,205.348,313.937,247.099,279.37,274.56z"/>
	</g>
</g>
<g>
	<g>
		<path d="M255.05,112.88c-8.061-8.2-18.985-12.96-30.48-13.28c-13.67,0.795-26.495,6.877-35.76,16.96
			c-9.265-10.083-22.09-16.165-35.76-16.96c-11.521,0.308-22.474,5.068-30.56,13.28c-10.636,9.79-15.551,24.324-13.04,38.56
			c5.36,37.6,47.36,76.96,75.76,91.28c2.264,1.141,4.936,1.141,7.2,0c28.4-14.32,70.4-53.68,75.68-91.28
			C270.616,137.203,265.698,122.662,255.05,112.88z M252.25,149.04c-3.76,26.8-35.76,61.84-63.44,77.36
			c-27.68-15.52-59.68-50.56-63.44-77.36c-1.84-9.048,1.196-18.398,8-24.64c5.159-5.425,12.204-8.661,19.68-9.04
			c16,0,29.12,17.6,29.2,17.76c2.56,3.601,7.555,4.445,11.156,1.884c0.729-0.518,1.366-1.155,1.884-1.884
			c0,0,13.12-17.76,29.2-17.76c7.476,0.379,14.521,3.615,19.68,9.04C251.003,130.625,254.07,139.978,252.25,149.04z"/>
	</g>
</g>
<g>
</g>
<g>
</g>
<g>
</g>
<g>
</g>
<g>
</g>
<g>
</g>
<g>
</g>
<g>
</g>
<g>
</g>
<g>
</g>
<g>
</g>
<g>
</g>
<g>
</g>
<g>
</g>
<g>
</g>
</svg>
